<svg xmlns="http://www.w3.org/2000/svg" viewBox="0 0 24 24" fill="#000"><title>iPhone</title><path fill-rule="evenodd" d="M9.2 1.5H14.8A2.7 2.7 0 0 1 17.5 4.2V19.8A2.7 2.7 0 0 1 14.8 22.5H9.2A2.7 2.7 0 0 1 6.5 19.8V4.2A2.7 2.7 0 0 1 9.2 1.5ZM9.2 3.2H14.8A1 1 0 0 1 15.8 4.2V19.8A1 1 0 0 1 14.8 20.8H9.2A1 1 0 0 1 8.2 19.8V4.2A1 1 0 0 1 9.2 3.2Z"/><path d="M10.67 4.1H13.33A0.57 0.57 0 0 1 13.9 4.67V4.68A0.57 0.57 0 0 1 13.33 5.25H10.67A0.57 0.57 0 0 1 10.1 4.68V4.67A0.57 0.57 0 0 1 10.67 4.1Z"/></svg>
